# xmcd CD database file
#
# Track frame offsets:
#	150
#	23793
#	47474
#	105607
#	126758
#	150300
#	172713
#	188022
#	218409
#	245066
#
# Disc length: 4185 seconds
#
# Revision: 2
# Processed by: cddbd v1.4b41PL1 Copyright (c) Steve Scherf et al.
# Submitted via: Feurio! 1.51.15ß - http://www.feurio.com
#
DISCID=6f10570a
DTITLE=Blues Traveler - Live From The Fall [CD1/2)
DYEAR=1900
DGENRE=
TTITLE0=Love And Greed
TTITLE1=Mulling It Over
TTITLE2=Closing Down The Park
TTITLE3=Regarding Steven
TTITLE4=New York Prophesie
TTITLE5=100 Years
TTITLE6=Crash Burn
TTITLE7=Gina
TTITLE8=But Anyway
TTITLE9=Mountain Cry
EXTD=
EXTT0=
EXTT1=
EXTT2=
EXTT3=
EXTT4=
EXTT5=
EXTT6=
EXTT7=
EXTT8=
EXTT9=
PLAYORDER=
